HIERARCHY
ROOT Root
{
  OFFSET 0.0 0.0 0.0
  CHANNELS 6 Xposition Yposition Zposition Zrotation Yrotation Xrotation
  JOINT Hips
  {
    OFFSET 0.0 100.0 0.0
    CHANNELS 6 Xposition Yposition Zposition Zrotation Yrotation Xrotation
    JOINT Spine1
    {
      OFFSET -0.013727 5.003763 -0.053727
      CHANNELS 3 Zrotation Yrotation Xrotation
      JOINT Spine2
      {
        OFFSET -0.0 7.125301 -0.029825
        CHANNELS 3 Zrotation Yrotation Xrotation
        JOINT Chest
        {
          OFFSET -1e-06 7.550063 -0.815971
          CHANNELS 3 Zrotation Yrotation Xrotation
          JOINT Neck1
          {
            OFFSET -0.181677 26.311295 -0.553348
            CHANNELS 3 Zrotation Yrotation Xrotation
            JOINT Neck2
            {
              OFFSET -3e-06 7.709397 2.302585
              CHANNELS 3 Zrotation Yrotation Xrotation
              JOINT Head
              {
                OFFSET -5e-06 6.128916 1.953709
                CHANNELS 3 Zrotation Yrotation Xrotation
                JOINT HeadEnd
                {
                  OFFSET 0.003598 16.065403 -1.835379
                  CHANNELS 3 Zrotation Yrotation Xrotation
                }
                JOINT Jaw
                {
                  OFFSET 0.002637 0.475592 3.094941
                  CHANNELS 3 Zrotation Yrotation Xrotation
                }
                JOINT LeftEye
                {
                  OFFSET 3.206381 5.380205 7.586883
                  CHANNELS 3 Zrotation Yrotation Xrotation
                }
                JOINT RightEye
                {
                  OFFSET -3.22244 5.361869 7.558234
                  CHANNELS 3 Zrotation Yrotation Xrotation
                }
              }
            }
          }
          JOINT LeftShoulder
          {
            OFFSET 1.621652 23.237164 5.113413
            CHANNELS 3 Zrotation Yrotation Xrotation
            JOINT LeftArm
            {
              OFFSET 14.919846 2e-06 -5.502326
              CHANNELS 3 Zrotation Yrotation Xrotation
              JOINT LeftForeArm
              {
                OFFSET 28.739307 0.0 -0.002588
                CHANNELS 3 Zrotation Yrotation Xrotation
                JOINT LeftHand
                {
                  OFFSET 27.093981 -1e-06 0.002609
                  CHANNELS 3 Zrotation Yrotation Xrotation
                  JOINT LeftHandThumb1
                  {
                    OFFSET 2.276482 -1.392045 3.191413
                    CHANNELS 3 Zrotation Yrotation Xrotation
                    JOINT LeftHandThumb2
                    {
                      OFFSET 4.012836 -1.828127 1.641654
                      CHANNELS 3 Zrotation Yrotation Xrotation
                      JOINT LeftHandThumb3
                      {
                        OFFSET 2.798515 0.0 -3e-06
                        CHANNELS 3 Zrotation Yrotation Xrotation
                        JOINT LeftHandThumbEnd
                        {
                          OFFSET 3.180793 -4e-06 4e-06
                          CHANNELS 3 Zrotation Yrotation Xrotation
                        }
                      }
                    }
                  }
                  JOINT LeftHandIndex1
                  {
                    OFFSET 3.247555 -0.531998 2.296169
                    CHANNELS 3 Zrotation Yrotation Xrotation
                    JOINT LeftHandIndex2
                    {
                      OFFSET 6.364578 0.01206 0.1786
                      CHANNELS 3 Zrotation Yrotation Xrotation
                      JOINT LeftHandIndex3
                      {
                        OFFSET 3.662364 0.0 0.0
                        CHANNELS 3 Zrotation Yrotation Xrotation
                        JOINT LeftHandIndex4
                        {
                          OFFSET 2.329242 4e-06 4e-06
                          CHANNELS 3 Zrotation Yrotation Xrotation
                          JOINT LeftHandIndexEnd
                          {
                            OFFSET 2.759615 -0.180537 -0.113024
                            CHANNELS 3 Zrotation Yrotation Xrotation
                          }
                        }
                      }
                    }
                  }
                  JOINT LeftHandMiddle1
                  {
                    OFFSET 3.163495 0.240981 1.000332
                    CHANNELS 3 Zrotation Yrotation Xrotation
                    JOINT LeftHandMiddle2
                    {
                      OFFSET 6.19078 -0.259278 -1.002548
                      CHANNELS 3 Zrotation Yrotation Xrotation
                      JOINT LeftHandMiddle3
                      {
                        OFFSET 4.35652 -4e-06 -1e-06
                        CHANNELS 3 Zrotation Yrotation Xrotation
                        JOINT LeftHandMiddle4
                        {
                          OFFSET 2.996877 -8e-06 0.0
                          CHANNELS 3 Zrotation Yrotation Xrotation
                          JOINT LeftHandMiddleEnd
                          {
                            OFFSET 2.304287 -0.294569 -0.031741
                            CHANNELS 3 Zrotation Yrotation Xrotation
                          }
                        }
                      }
                    }
                  }
                  JOINT LeftHandRing1
                  {
                    OFFSET 2.882643 -0.053652 -0.322543
                    CHANNELS 3 Zrotation Yrotation Xrotation
                    JOINT LeftHandRing2
                    {
                      OFFSET 5.854541 -0.486202 -1.373841
                      CHANNELS 3 Zrotation Yrotation Xrotation
                      JOINT LeftHandRing3
                      {
                        OFFSET 4.350578 0.0 3e-06
                        CHANNELS 3 Zrotation Yrotation Xrotation
                        JOINT LeftHandRing4
                        {
                          OFFSET 2.651321 7e-06 2e-06
                          CHANNELS 3 Zrotation Yrotation Xrotation
                          JOINT LeftHandRingEnd
                          {
                            OFFSET 1.936105 0.077687 -7.1e-05
                            CHANNELS 3 Zrotation Yrotation Xrotation
                          }
                        }
                      }
                    }
                  }
                  JOINT LeftHandPinky1
                  {
                    OFFSET 2.8655 -0.310005 -1.600378
                    CHANNELS 3 Zrotation Yrotation Xrotation
                    JOINT LeftHandPinky2
                    {
                      OFFSET 5.087849 -1.331141 -1.77123
                      CHANNELS 3 Zrotation Yrotation Xrotation
                      JOINT LeftHandPinky3
                      {
                        OFFSET 3.070974 4e-06 0.0
                        CHANNELS 3 Zrotation Yrotation Xrotation
                        JOINT LeftHandPinky4
                        {
                          OFFSET 1.549672 0.0 1e-06
                          CHANNELS 3 Zrotation Yrotation Xrotation
                          JOINT LeftHandPinkyEnd
                          {
                            OFFSET 1.944893 -0.157802 0.057219
                            CHANNELS 3 Zrotation Yrotation Xrotation
                          }
                        }
                      }
                    }
                  }
                }
              }
            }
          }
          JOINT RightShoulder
          {
            OFFSET -1.380118 23.180309 5.214158
            CHANNELS 3 Zrotation Yrotation Xrotation
            JOINT RightArm
            {
              OFFSET -15.037196 1.2e-05 -5.545604
              CHANNELS 3 Zrotation Yrotation Xrotation
              JOINT RightForeArm
              {
                OFFSET -28.736639 2e-06 -0.002597
                CHANNELS 3 Zrotation Yrotation Xrotation
                JOINT RightHand
                {
                  OFFSET -27.133619 -0.0 0.002613
                  CHANNELS 3 Zrotation Yrotation Xrotation
                  JOINT RightHandThumb1
                  {
                    OFFSET -2.274032 -1.383988 3.163127
                    CHANNELS 3 Zrotation Yrotation Xrotation
                    JOINT RightHandThumb2
                    {
                      OFFSET -4.011429 -1.827466 1.640914
                      CHANNELS 3 Zrotation Yrotation Xrotation
                      JOINT RightHandThumb3
                      {
                        OFFSET -2.794935 -4e-06 -3e-06
                        CHANNELS 3 Zrotation Yrotation Xrotation
                        JOINT RightHandThumbEnd
                        {
                          OFFSET -3.183852 4e-06 1e-06
                          CHANNELS 3 Zrotation Yrotation Xrotation
                        }
                      }
                    }
                  }
                  JOINT RightHandIndex1
                  {
                    OFFSET -3.253266 -0.520057 2.282866
                    CHANNELS 3 Zrotation Yrotation Xrotation
                    JOINT RightHandIndex2
                    {
                      OFFSET -6.341917 0.012471 0.178266
                      CHANNELS 3 Zrotation Yrotation Xrotation
                      JOINT RightHandIndex3
                      {
                        OFFSET -3.654871 -8e-06 -0.0
                        CHANNELS 3 Zrotation Yrotation Xrotation
                        JOINT RightHandIndex4
                        {
                          OFFSET -2.327586 0.0 1e-06
                          CHANNELS 3 Zrotation Yrotation Xrotation
                          JOINT RightHandIndexEnd
                          {
                            OFFSET -2.76179 -0.180656 -0.113078
                            CHANNELS 3 Zrotation Yrotation Xrotation
                          }
                        }
                      }
                    }
                  }
                  JOINT RightHandMiddle1
                  {
                    OFFSET -3.168106 0.246593 1.00103
                    CHANNELS 3 Zrotation Yrotation Xrotation
                    JOINT RightHandMiddle2
                    {
                      OFFSET -6.180828 -0.258836 -1.000895
                      CHANNELS 3 Zrotation Yrotation Xrotation
                      JOINT RightHandMiddle3
                      {
                        OFFSET -4.348901 0.0 -0.0
                        CHANNELS 3 Zrotation Yrotation Xrotation
                        JOINT RightHandMiddle4
                        {
                          OFFSET -3.00024 -4e-06 -2e-06
                          CHANNELS 3 Zrotation Yrotation Xrotation
                          JOINT RightHandMiddleEnd
                          {
                            OFFSET -2.30252 -0.29437 -0.031706
                            CHANNELS 3 Zrotation Yrotation Xrotation
                          }
                        }
                      }
                    }
                  }
                  JOINT RightHandRing1
                  {
                    OFFSET -2.88569 -0.067952 -0.308858
                    CHANNELS 3 Zrotation Yrotation Xrotation
                    JOINT RightHandRing2
                    {
                      OFFSET -5.854198 -0.48613 -1.373731
                      CHANNELS 3 Zrotation Yrotation Xrotation
                      JOINT RightHandRing3
                      {
                        OFFSET -4.33881 -4e-06 -0.0
                        CHANNELS 3 Zrotation Yrotation Xrotation
                        JOINT RightHandRing4
                        {
                          OFFSET -2.654903 -4e-06 4e-06
                          CHANNELS 3 Zrotation Yrotation Xrotation
                          JOINT RightHandRingEnd
                          {
                            OFFSET -1.933568 0.077527 -5.2e-05
                            CHANNELS 3 Zrotation Yrotation Xrotation
                          }
                        }
                      }
                    }
                  }
                  JOINT RightHandPinky1
                  {
                    OFFSET -2.866425 -0.342796 -1.584145
                    CHANNELS 3 Zrotation Yrotation Xrotation
                    JOINT RightHandPinky2
                    {
                      OFFSET -5.091371 -1.332055 -1.772385
                      CHANNELS 3 Zrotation Yrotation Xrotation
                      JOINT RightHandPinky3
                      {
                        OFFSET -3.062664 -4e-06 1e-06
                        CHANNELS 3 Zrotation Yrotation Xrotation
                        JOINT RightHandPinky4
                        {
                          OFFSET -1.546529 4e-06 -2e-06
                          CHANNELS 3 Zrotation Yrotation Xrotation
                          JOINT RightHandPinkyEnd
                          {
                            OFFSET -1.945119 -0.157718 0.057211
                            CHANNELS 3 Zrotation Yrotation Xrotation
                          }
                        }
                      }
                    }
                  }
                }
              }
            }
          }
        }
      }
    }
    JOINT LeftLeg
    {
      OFFSET 10.043214 -8.434526 2.595655
      CHANNELS 3 Zrotation Yrotation Xrotation
      JOINT LeftShin
      {
        OFFSET -1e-06 -43.221752 -0.802913
        CHANNELS 3 Zrotation Yrotation Xrotation
        JOINT LeftFoot
        {
          OFFSET 1e-06 -42.155094 -3.481523
          CHANNELS 3 Zrotation Yrotation Xrotation
          JOINT LeftToeBase
          {
            OFFSET 0.0 -5.059472 13.231529
            CHANNELS 3 Zrotation Yrotation Xrotation
            JOINT LeftToeEnd
            {
              OFFSET -0.009607 -1.647619 6.513017
              CHANNELS 3 Zrotation Yrotation Xrotation
            }
          }
        }
      }
    }
    JOINT RightLeg
    {
      OFFSET -10.047278 -8.29526 2.620317
      CHANNELS 3 Zrotation Yrotation Xrotation
      JOINT RightShin
      {
        OFFSET 1e-06 -43.362206 -0.805556
        CHANNELS 3 Zrotation Yrotation Xrotation
        JOINT RightFoot
        {
          OFFSET 2e-06 -42.117393 -3.478398
          CHANNELS 3 Zrotation Yrotation Xrotation
          JOINT RightToeBase
          {
            OFFSET -0.0 -5.079609 13.284196
            CHANNELS 3 Zrotation Yrotation Xrotation
            JOINT RightToeEnd
            {
              OFFSET 0.009532 -1.634378 6.460591
              CHANNELS 3 Zrotation Yrotation Xrotation
            }
          }
        }
      }
    }
  }
}
MOTION
Frames: 4
Frame Time: 0.03333333333333333
0.0 0.0 0.0 0.0 -0.0 0.0 1.243528 94.173393 -0.560519 -4.628574 1.604465 2.941638 -0.869114 0.906895 5.483193 -0.431304 0.712382 -2.854489 -1.537838 0.283842 14.281054 -10.854884 9.338955 14.701801 1.676079 7.702687 -3.882238 -2.814415 9.305235 -20.597589 7.7e-05 -2.3e-05 5e-06 0.057287 -0.151289 0.009899 0.711678 -3.882608 -10.762474 -0.609809 3.599432 -10.813026 -6.760098 -2.897978 15.068898 -60.143486 -0.965395 2.333514 -0.314981 -50.658672 -3.1e-05 2.530345 -0.359145 6.29226 -5.882103 9.861283 0.702591 -10.936867 -0.360575 7.156205 -0.0 8.774823 -3e-06 -16.38014 17.847666 5.808279 -1.844031 2.498504 -2.507278 -10.163595 4.678944 4.621109 -20.976013 -2e-06 5e-06 -21.226274 2.451698 -3.594 1e-06 -7e-06 -0.0 -1.362681 2.240797 -0.746323 -21.334906 0.584911 3.008324 -13.821208 -2e-06 4e-06 -23.887159 -0.249076 -0.839482 -60.991589 2.695941 -1.085274 -0.294025 1.679688 0.833255 -14.218201 0.093214 1.300581 -34.212036 -0.287559 0.967173 -20.033205 0.964539 1.212846 0.0 -1e-06 -1e-06 -3.440386 0.788233 0.501657 -15.928179 -3.167308 2.999708 -6.338822 -1e-06 2e-06 -18.123436 3.648184 -4.905666 -3e-06 1e-06 -2e-06 8.091207 12.270552 17.122177 46.687782 13.26548 22.873848 -0.409311 40.319736 0.157103 -7.799072 14.177032 -9.269585 2.243541 -5.255037 -3.180157 14.282894 -0.826597 6.952506 -1e-06 -12.690604 1e-06 15.702455 -17.919786 2.738137 1.665666 -1.955922 -2.878299 4.727799 -4.170588 4.993926 11.020528 1e-06 -2e-06 12.109055 -3.735717 -2.866786 0.0 -0.0 0.0 1.291985 -1.928549 -1.498091 14.800131 0.567466 3.865608 14.242573 -1.341737 -6.66066 19.631969 0.143925 -0.648247 49.828842 -0.961916 -6.668 0.353029 -1.51115 -0.031939 20.222794 3.684308 2.316631 18.78727 2e-06 -3e-06 10.751627 -0.47987 1.397905 1e-06 1e-06 0.0 3.273807 0.305947 -0.580111 21.486814 11.830373 2.26613 8.162928 1e-06 -1e-06 18.399086 -3.798988 -4.94058 3e-06 -1e-06 -1e-06 3.502324 26.732403 -34.044895 0.160756 0.035166 44.046871 -6.914442 24.421757 -14.758128 1.549452 -2.063879 0.680345 -0.0 -1e-06 2e-06 -26.72294 11.070273 -7.842062 -0.229771 1.688142 18.36285 10.624117 -21.11545 34.549042 -1.700506 1.08601 -4.095756 -0.0 -1e-06 -2e-06 
0.0 0.0 0.0 0.0 -0.0 0.0 3.819582 94.7407 -0.56049 -5.625316 3.041403 3.590472 -0.562216 0.710457 6.432357 -0.314632 0.436999 -2.584518 -0.6674 -0.626423 14.815323 -11.53769 9.816102 14.27196 1.595986 7.275654 -3.892895 -3.391158 9.364594 -20.659653 7.7e-05 -2.2e-05 5e-06 0.044655 -0.115808 0.018445 0.717699 -3.835699 -10.730719 -0.64334 3.619826 -10.781686 -6.394156 -3.567286 15.134142 -59.398312 -2.016005 2.327515 -1.321088 -55.351334 0.613496 3.431988 -1.150461 3.637765 -5.882106 9.861286 0.70259 -10.936872 -0.360575 7.156202 1e-06 8.774825 -1e-06 -16.168045 18.009924 5.869051 -1.844033 2.498504 -2.507279 -10.163599 4.678946 4.621107 -20.976023 -4e-06 1e-06 -21.226288 2.451694 -3.594002 1e-06 -7e-06 -1e-06 -1.362681 2.240799 -0.746324 -21.334913 0.584908 3.008321 -13.821217 -5e-06 1e-06 -23.887171 -0.249082 -0.839485 -60.969959 2.707623 -1.026672 -0.294025 1.679688 0.833255 -14.218208 0.093215 1.300578 -34.212048 -0.287567 0.967167 -20.033211 0.964534 1.212842 1e-06 1e-06 0.0 -3.440389 0.788234 0.501655 -15.928187 -3.16731 2.999705 -6.338827 -3e-06 1e-06 -18.123444 3.648182 -4.905673 -3e-06 -0.0 -2e-06 7.928063 12.290562 17.216965 44.393272 14.665895 20.638626 -0.297424 42.524857 0.182269 -10.063954 15.375138 -11.719277 2.243544 -5.255037 -3.180158 14.282896 -0.826596 6.952504 -3e-06 -12.690606 3e-06 15.923141 -18.019711 2.707776 1.665665 -1.955921 -2.878301 4.7278 -4.170588 4.993925 11.020528 3e-06 -2e-06 12.109054 -3.735716 -2.866785 0.0 -0.0 1e-06 1.291986 -1.92855 -1.498091 14.800132 0.567467 3.865608 14.242577 -1.341736 -6.660661 19.631973 0.143925 -0.648245 49.919498 -0.964191 -6.675941 0.353029 -1.511151 -0.031938 20.222797 3.684309 2.316629 18.787279 4e-06 -1e-06 10.751632 -0.479869 1.397906 1e-06 2e-06 -1e-06 3.273807 0.305946 -0.580112 21.486818 11.830376 2.266132 8.162929 1e-06 -1e-06 18.399088 -3.798985 -4.940576 3e-06 -1e-06 -1e-06 2.371076 25.16497 -34.542374 0.256751 0.202984 43.01606 -5.216538 24.220749 -14.873623 1.549229 -2.078247 1.283333 -0.0 -2e-06 2e-06 -25.521631 11.418982 -14.395761 -0.012014 1.781373 27.883448 7.81545 -19.286409 32.649471 -1.859004 1.111491 -0.174941 -0.0 -1e-06 -2e-06 
0.0 0.0 0.0 0.0 -0.0 0.0 9.023859 95.467697 -0.679387 -6.622634 5.318351 4.234165 -0.362301 0.354183 7.287812 -0.25828 -0.027236 -2.318261 0.31169 -1.490503 15.312979 -11.669246 9.748152 13.960586 1.565018 7.001166 -3.84875 -3.955248 9.583285 -20.312094 7.7e-05 -2.1e-05 5e-06 0.063925 -0.149431 0.010636 0.734708 -3.857854 -10.714251 -0.621833 3.570167 -10.734745 -5.288686 -4.587318 15.350623 -59.096443 -2.931241 1.786996 -1.761282 -58.418259 1.034447 4.531029 -1.372096 1.263981 -5.882108 9.86129 0.702592 -10.936875 -0.360574 7.156206 -0.0 8.774827 -1e-06 -16.259533 18.262341 5.744782 -1.844033 2.498505 -2.507278 -10.163603 4.678947 4.621109 -20.97603 -2e-06 3e-06 -21.226294 2.451699 -3.594001 -0.0 -6e-06 -1e-06 -1.362682 2.240798 -0.746324 -21.334925 0.58491 3.008322 -13.82122 -3e-06 1e-06 -23.88718 -0.249077 -0.839484 -61.180267 2.776048 -1.284258 -0.294025 1.679688 0.833257 -14.218214 0.093215 1.300581 -34.212063 -0.287562 0.96717 -20.033224 0.964538 1.212842 1e-06 -1e-06 0.0 -3.440389 0.788233 0.501657 -15.928192 -3.16731 2.999707 -6.338829 -0.0 2e-06 -18.123453 3.648185 -4.905671 -3e-06 0.0 -1e-06 8.470594 12.197953 17.274282 43.161713 16.21063 18.888433 -0.365824 42.67054 0.116825 -12.136722 16.008736 -12.828765 2.243541 -5.255036 -3.180157 14.282892 -0.826596 6.952503 -1e-06 -12.690604 -2e-06 15.978075 -18.073254 2.619037 1.665666 -1.955922 -2.878298 4.727799 -4.170588 4.993923 11.020527 2e-06 -1e-06 12.109053 -3.735718 -2.866783 0.0 -0.0 0.0 1.291985 -1.92855 -1.49809 14.800129 0.567467 3.865609 14.242571 -1.341739 -6.660657 19.631968 0.143924 -0.648245 49.784939 -0.957239 -6.794131 0.35303 -1.511152 -0.031938 20.222788 3.684307 2.316631 18.787273 2e-06 -2e-06 10.751627 -0.47987 1.397906 1e-06 2e-06 -1e-06 3.273807 0.305947 -0.58011 21.486809 11.830371 2.266132 8.162926 2e-06 -1e-06 18.39908 -3.798986 -4.940577 3e-06 -0.0 -2e-06 -0.559547 22.664808 -34.421272 0.346399 0.335992 40.826977 -1.708312 24.24633 -15.1182 1.542766 -2.097757 1.456499 -0.0 0.0 2e-06 -21.770002 9.905412 -20.6415 0.320731 1.792294 38.632099 9.990125 -15.968821 23.865194 -1.792942 1.16124 -0.680458 -0.0 -0.0 -3e-06 
0.0 0.0 0.0 0.0 -0.0 0.0 13.339357 96.455421 -0.55784 -7.422729 7.953989 5.039834 -0.260179 0.02456 7.855558 -0.214975 -0.505598 -2.063346 1.216177 -2.113498 15.461393 -11.387293 9.418029 13.783028 1.489597 6.756598 -3.797648 -4.395075 9.813504 -19.763809 7.7e-05 -2.1e-05 6e-06 0.095756 -0.191237 -0.005671 0.757065 -3.899303 -10.693228 -0.578849 3.523951 -10.697447 -3.624316 -5.743718 15.516752 -59.662529 -3.587006 0.406336 -2.287233 -59.236046 1.355352 5.865778 -1.065157 -0.828519 -5.882111 9.861293 0.702591 -10.936878 -0.360574 7.156208 -0.0 8.774831 -0.0 -16.316216 18.33054 5.639217 -1.844034 2.498504 -2.507279 -10.163605 4.678949 4.621109 -20.976038 -2e-06 1e-06 -21.226303 2.451698 -3.594005 -0.0 -6e-06 0.0 -1.362682 2.2408 -0.746324 -21.334929 0.584913 3.008321 -13.821222 -2e-06 2e-06 -23.887184 -0.249079 -0.839486 -61.071159 2.781351 -1.414556 -0.294025 1.679688 0.833256 -14.218218 0.093216 1.30058 -34.21207 -0.287564 0.967165 -20.033228 0.964537 1.212842 1e-06 1e-06 -1e-06 -3.440391 0.788234 0.501655 -15.928196 -3.16731 2.999706 -6.338832 0.0 -0.0 -18.123461 3.648185 -4.905675 -3e-06 -0.0 -2e-06 9.133886 11.938278 17.188572 43.676453 17.758451 18.102671 -0.472372 40.769329 0.136525 -12.551729 15.78461 -12.696642 2.243544 -5.255041 -3.180161 14.282902 -0.826597 6.952504 -0.0 -12.690616 -0.0 16.02483 -18.133205 2.475707 1.665671 -1.955924 -2.878299 4.727803 -4.170592 4.993926 11.020536 1e-06 -3e-06 12.109063 -3.73572 -2.86679 0.0 0.0 1e-06 1.291986 -1.928549 -1.498091 14.800138 0.567467 3.865609 14.242582 -1.341738 -6.660664 19.631979 0.143925 -0.648247 49.688885 -0.837681 -6.920052 0.35303 -1.511152 -0.031939 20.222803 3.684309 2.316628 18.787289 2e-06 -5e-06 10.751636 -0.47987 1.397904 1e-06 2e-06 -1e-06 3.273809 0.305948 -0.580112 21.486828 11.830382 2.266131 8.16293 2e-06 -3e-06 18.399097 -3.798988 -4.940582 3e-06 -0.0 -2e-06 -2.956074 20.3141 -33.107643 0.375431 0.455916 36.573811 1.87771 23.518114 -13.997115 1.540266 -2.088245 1.324821 -0.0 -1e-06 2e-06 -15.789686 7.523038 -26.447559 0.46382 1.459469 47.387112 9.258441 -14.452067 16.009378 -1.656348 1.156605 -1.447234 0.0 -1e-06 -3e-06 
